<svg width="185" height="31" viewBox="0 0 185 31" fill="none" xmlns="http://www.w3.org/2000/svg">
<path d="M38.5835 25V6.09091H51.7681V9.80256H43.1538V13.6804H51.0941V17.4013H43.1538V21.2884H51.7681V25H38.5835ZM54.8196 25V22.424L61.3935 14.419V14.3267H55.0504V10.8182H66.7763V13.6435L60.6825 21.3991V21.4915H66.9979V25H54.8196ZM72.6761 30.3182C72.1345 30.3182 71.6236 30.2751 71.1435 30.1889C70.6634 30.1089 70.2509 30.0012 69.9062 29.8658L70.9034 26.5881C71.3466 26.7358 71.7467 26.822 72.1037 26.8466C72.4669 26.8712 72.7777 26.8127 73.0362 26.6712C73.3009 26.5357 73.504 26.2926 73.6456 25.9418L73.821 25.517L68.7798 10.8182H73.5071L76.12 20.9375H76.2678L78.9176 10.8182H83.6726L78.3267 26.3572C78.0682 27.1328 77.7019 27.8161 77.228 28.407C76.7602 29.004 76.1539 29.4718 75.4091 29.8104C74.6705 30.1489 73.7595 30.3182 72.6761 30.3182ZM102.72 12.9418H98.1037C98.0421 12.4678 97.916 12.04 97.7251 11.6584C97.5343 11.2768 97.282 10.9505 96.968 10.6797C96.6541 10.4089 96.2817 10.2027 95.8509 10.0611C95.4261 9.91335 94.9553 9.83949 94.4382 9.83949C93.5211 9.83949 92.7301 10.0642 92.0653 10.5135C91.4067 10.9628 90.8989 11.6122 90.5419 12.4616C90.1911 13.3111 90.0156 14.339 90.0156 15.5455C90.0156 16.8011 90.1941 17.8537 90.5511 18.7031C90.9143 19.5464 91.4221 20.1835 92.0746 20.6143C92.7332 21.0391 93.5118 21.2514 94.4105 21.2514C94.9152 21.2514 95.3738 21.1868 95.7862 21.0575C96.2048 20.9283 96.571 20.7405 96.8849 20.4943C97.205 20.242 97.4666 19.9373 97.6697 19.5803C97.879 19.2171 98.0237 18.8078 98.1037 18.3523L102.72 18.38C102.64 19.2171 102.397 20.0419 101.991 20.8544C101.591 21.6669 101.04 22.4086 100.338 23.0795C99.6364 23.7443 98.7808 24.2737 97.7713 24.6676C96.768 25.0616 95.617 25.2585 94.3182 25.2585C92.607 25.2585 91.0743 24.883 89.7202 24.1321C88.3722 23.375 87.3073 22.2732 86.5256 20.8267C85.7438 19.3802 85.353 17.6198 85.353 15.5455C85.353 13.465 85.75 11.7015 86.544 10.255C87.3381 8.80848 88.4122 7.70975 89.7663 6.95881C91.1205 6.20786 92.6378 5.83239 94.3182 5.83239C95.4631 5.83239 96.5218 5.99242 97.4943 6.3125C98.4669 6.62642 99.3224 7.08807 100.061 7.69744C100.8 8.30066 101.4 9.04238 101.862 9.92259C102.323 10.8028 102.609 11.8092 102.72 12.9418ZM112.108 25.2678C110.618 25.2678 109.338 24.9631 108.267 24.3537C107.202 23.7382 106.38 22.8826 105.802 21.7869C105.229 20.6851 104.943 19.4079 104.943 17.9553C104.943 16.4964 105.229 15.2192 105.802 14.1236C106.38 13.0218 107.202 12.1662 108.267 11.5568C109.338 10.9413 110.618 10.6335 112.108 10.6335C113.597 10.6335 114.875 10.9413 115.939 11.5568C117.01 12.1662 117.832 13.0218 118.405 14.1236C118.983 15.2192 119.273 16.4964 119.273 17.9553C119.273 19.4079 118.983 20.6851 118.405 21.7869C117.832 22.8826 117.01 23.7382 115.939 24.3537C114.875 24.9631 113.597 25.2678 112.108 25.2678ZM112.135 21.8608C112.677 21.8608 113.136 21.6946 113.511 21.3622C113.887 21.0298 114.173 20.5682 114.37 19.9773C114.573 19.3864 114.675 18.7031 114.675 17.9276C114.675 17.1397 114.573 16.4503 114.37 15.8594C114.173 15.2685 113.887 14.8068 113.511 14.4744C113.136 14.142 112.677 13.9759 112.135 13.9759C111.575 13.9759 111.101 14.142 110.714 14.4744C110.332 14.8068 110.04 15.2685 109.836 15.8594C109.64 16.4503 109.541 17.1397 109.541 17.9276C109.541 18.7031 109.64 19.3864 109.836 19.9773C110.04 20.5682 110.332 21.0298 110.714 21.3622C111.101 21.6946 111.575 21.8608 112.135 21.8608ZM130.735 18.8786V10.8182H135.241V25H130.938V22.3594H130.791C130.477 23.2273 129.941 23.9167 129.184 24.4276C128.433 24.9323 127.525 25.1847 126.46 25.1847C125.494 25.1847 124.645 24.9631 123.912 24.5199C123.18 24.0767 122.61 23.4581 122.204 22.6641C121.798 21.8639 121.592 20.9283 121.585 19.8572V10.8182H126.1V18.9709C126.106 19.7403 126.31 20.3466 126.71 20.7898C127.11 21.233 127.655 21.4545 128.344 21.4545C128.793 21.4545 129.196 21.3561 129.553 21.1591C129.917 20.956 130.203 20.6636 130.412 20.282C130.628 19.8942 130.735 19.4264 130.735 18.8786ZM138.115 25V10.8182H142.5V13.4034H142.648C142.907 12.4678 143.328 11.7723 143.913 11.3168C144.498 10.8551 145.178 10.6243 145.953 10.6243C146.163 10.6243 146.378 10.6397 146.6 10.6705C146.821 10.6951 147.028 10.7351 147.218 10.7905V14.7145C147.003 14.6406 146.72 14.5821 146.369 14.5391C146.024 14.496 145.717 14.4744 145.446 14.4744C144.91 14.4744 144.427 14.5945 143.996 14.8345C143.571 15.0684 143.236 15.3977 142.99 15.8224C142.75 16.241 142.63 16.7334 142.63 17.2997V25H138.115ZM161.439 15.1484L157.294 15.2592C157.251 14.9638 157.134 14.7022 156.943 14.4744C156.752 14.2405 156.503 14.0589 156.195 13.9297C155.894 13.7943 155.543 13.7266 155.143 13.7266C154.619 13.7266 154.173 13.8312 153.804 14.0405C153.441 14.2498 153.262 14.5329 153.268 14.8899C153.262 15.1669 153.373 15.407 153.601 15.6101C153.835 15.8132 154.25 15.9763 154.847 16.0994L157.58 16.6165C158.996 16.8873 160.048 17.3366 160.738 17.9645C161.433 18.5923 161.784 19.4233 161.79 20.4574C161.784 21.4299 161.495 22.2763 160.922 22.9964C160.356 23.7166 159.581 24.2768 158.596 24.6768C157.611 25.0708 156.484 25.2678 155.216 25.2678C153.191 25.2678 151.594 24.8523 150.425 24.0213C149.261 23.1842 148.596 22.0639 148.43 20.6605L152.89 20.5497C152.988 21.0668 153.244 21.4607 153.656 21.7315C154.068 22.0024 154.595 22.1378 155.235 22.1378C155.814 22.1378 156.284 22.0301 156.648 21.8146C157.011 21.5992 157.195 21.313 157.202 20.956C157.195 20.6359 157.054 20.3804 156.777 20.1896C156.5 19.9927 156.066 19.8388 155.475 19.728L153.001 19.2571C151.579 18.9986 150.52 18.5215 149.824 17.826C149.129 17.1243 148.784 16.2318 148.79 15.1484C148.784 14.2005 149.037 13.3911 149.547 12.7202C150.058 12.0431 150.785 11.526 151.726 11.169C152.668 10.812 153.779 10.6335 155.059 10.6335C156.98 10.6335 158.494 11.0367 159.602 11.843C160.71 12.6432 161.323 13.745 161.439 15.1484ZM170.642 25.2678C169.159 25.2678 167.879 24.9754 166.801 24.3906C165.73 23.7997 164.906 22.9595 164.327 21.87C163.755 20.7744 163.468 19.4725 163.468 17.9645C163.468 16.4995 163.758 15.2192 164.336 14.1236C164.915 13.0218 165.73 12.1662 166.783 11.5568C167.836 10.9413 169.076 10.6335 170.504 10.6335C171.513 10.6335 172.437 10.7905 173.274 11.1044C174.111 11.4183 174.834 11.883 175.444 12.4986C176.053 13.1141 176.527 13.8743 176.865 14.7791C177.204 15.6778 177.373 16.7088 177.373 17.8722V18.9986H165.047V16.3764H173.172C173.166 15.8963 173.052 15.4685 172.831 15.093C172.609 14.7176 172.304 14.4252 171.917 14.2159C171.535 14.0005 171.095 13.8928 170.596 13.8928C170.092 13.8928 169.639 14.0066 169.239 14.2344C168.839 14.456 168.522 14.7607 168.288 15.1484C168.054 15.5301 167.931 15.964 167.919 16.4503V19.1186C167.919 19.6972 168.033 20.205 168.26 20.642C168.488 21.0729 168.811 21.4084 169.23 21.6484C169.648 21.8885 170.147 22.0085 170.725 22.0085C171.126 22.0085 171.489 21.9531 171.815 21.8423C172.141 21.7315 172.421 21.5684 172.655 21.353C172.889 21.1375 173.065 20.8729 173.181 20.5589L177.327 20.679C177.155 21.6084 176.776 22.4179 176.191 23.1072C175.613 23.7905 174.853 24.3229 173.911 24.7045C172.969 25.08 171.88 25.2678 170.642 25.2678Z" fill="#586ED1"/>
<rect y="1" width="32" height="28" fill="#586ED1"/>
<path d="M15.3686 18.3687C15.2764 18.3687 15.1848 18.3485 15.0995 18.3087L4.36253 13.256C4.14148 13.1518 4 12.9289 4 12.6844C4 12.44 4.14148 12.2171 4.36253 12.1129L15.0995 7.06016C15.27 6.97995 15.4671 6.97995 15.6376 7.06016L26.3746 12.1129C26.5957 12.2171 26.7371 12.44 26.7371 12.6844C26.7371 12.9289 26.5957 13.1518 26.3746 13.256L15.6376 18.3087C15.5524 18.3485 15.4608 18.3687 15.3686 18.3687V18.3687ZM6.11519 12.6844L15.3686 17.0392L24.622 12.6844L15.3686 8.32965L6.11519 12.6844Z" fill="white"/>
<path d="M15.3687 23.422C15.2721 23.422 15.1748 23.3999 15.0864 23.3557L7.50735 19.5662C7.29324 19.4588 7.15808 19.2403 7.15808 19.0009V14.1712C7.15808 13.9552 7.26861 13.7537 7.45114 13.6381C7.63367 13.5219 7.86293 13.5086 8.05809 13.5996L15.3687 17.0398L22.6787 13.5996C22.8745 13.508 23.1038 13.5219 23.2857 13.6381C23.4688 13.7537 23.5793 13.9552 23.5793 14.1712V19.0009C23.5793 19.2403 23.4442 19.4588 23.2301 19.5662L15.651 23.3557C15.5626 23.3999 15.4653 23.422 15.3687 23.422V23.422ZM8.42126 18.6106L15.3687 22.0843L22.3162 18.6106V15.1665L15.6378 18.3093C15.4672 18.3895 15.2702 18.3895 15.0997 18.3093L8.42126 15.1665V18.6106Z" fill="white"/>
<path d="M26.1058 13.3151H15.3688C15.0202 13.3151 14.7372 13.0321 14.7372 12.6835C14.7372 12.3348 15.0202 12.0519 15.3688 12.0519H26.1058C26.4544 12.0519 26.7374 12.3348 26.7374 12.6835C26.7374 13.0321 26.4544 13.3151 26.1058 13.3151Z" fill="white"/>
<path d="M26.1054 18.9993C25.7568 18.9993 25.4738 18.7164 25.4738 18.3678V12.6835C25.4738 12.3348 25.7568 12.0519 26.1054 12.0519C26.454 12.0519 26.737 12.3348 26.737 12.6835V18.3678C26.737 18.7164 26.454 18.9993 26.1054 18.9993Z" fill="white"/>
<path d="M15.3686 14.579C15.02 14.579 14.737 14.296 14.737 13.9474V11.421C14.737 11.0724 15.02 10.7894 15.3686 10.7894C15.7172 10.7894 16.0002 11.0724 16.0002 11.421V13.9474C16.0002 14.296 15.7172 14.579 15.3686 14.579Z" fill="white"/>
<path d="M24.8417 20.8939C24.7217 20.8939 24.5998 20.8598 24.4918 20.7878C24.2019 20.5946 24.1236 20.2023 24.3169 19.9118L25.58 18.017C25.7733 17.7265 26.1649 17.6476 26.456 17.8421C26.7459 18.0354 26.8243 18.4276 26.631 18.7181L25.3678 20.6129C25.2459 20.7954 25.0457 20.8939 24.8417 20.8939Z" fill="white"/>
<path d="M27.3691 20.8939C27.1651 20.8939 26.9649 20.7954 26.843 20.6129L25.5798 18.7181C25.3866 18.4282 25.4649 18.0354 25.7548 17.8421C26.0447 17.6476 26.4369 17.7265 26.6308 18.017L27.894 19.9118C28.0872 20.2017 28.0089 20.5946 27.719 20.7878C27.611 20.8598 27.4891 20.8939 27.3691 20.8939Z" fill="white"/>
<path d="M15.3688 20.2643C15.0202 20.2643 14.7372 19.9813 14.7372 19.6327V17.7379C14.7372 17.3893 15.0202 17.1063 15.3688 17.1063C15.7175 17.1063 16.0004 17.3893 16.0004 17.7379V19.6327C16.0004 19.9813 15.7175 20.2643 15.3688 20.2643Z" fill="white"/>
</svg>
